<?xml version="1.0" encoding="utf-8"?>
<!-- Generator: Adobe Illustrator 25.0.0, SVG Export Plug-In . SVG Version: 6.00 Build 0)  -->
<svg version="1.1" id="图层_1" xmlns="http://www.w3.org/2000/svg" xmlns:xlink="http://www.w3.org/1999/xlink" x="0px" y="0px"
	 viewBox="0 0 660 128" style="enable-background:new 0 0 660 128;" xml:space="preserve">
<style type="text/css">
	.st0{fill:#1A1A1A;}
	.st1{fill:#213380;}
</style>
<g>
	<path class="st0" d="M437.3,107.1c-0.8-0.8-2-1.8-3.4-2.9c-1.4-1.1-2.5-2.1-3.5-2.8l2.7-3.5c3.1,2.4,5.4,4.2,6.9,5.5L437.3,107.1z
		 M439.4,110.5c-0.3,0.9-1,3.1-2.2,6.7c-1.2,3.6-1.8,5.7-2,6.4l-4.4-1.3c0.3-0.8,1.1-2.9,2.2-6.5c1.1-3.6,1.8-5.8,2-6.6L439.4,110.5
		z M440.7,94.6l-2.6,3.5c-0.8-0.7-1.9-1.7-3.3-2.8c-1.4-1.1-2.4-2-3.2-2.6l2.7-3.5c1.7,1.2,3.9,2.9,6.5,5v-3.8h24.1v7.8h-4.3v-3.6
		h-15.6v3.5h-4.2V94.6z M457.7,110.3c1.2,1.5,2.5,2.9,3.9,4c1.4,1.2,3.1,2.3,5,3.5l-2.6,4.3c-3.6-2.6-6.7-5.8-9.2-9.6V124h-4.4v-11
		c-2.5,3.6-5.6,6.6-9.2,9.1l-2.6-3.9c1.9-1.1,3.5-2.3,5-3.6c1.5-1.3,2.8-2.7,4.1-4.3h-6.8v-4.2h9.5v-3.8h4.4v3.8h10.1v4.2H457.7z
		 M440.8,101.7c1.4-0.7,2.8-1.6,4.4-2.7c1.5-1.1,2.8-2.2,3.9-3.2l2.8,3.2c-2.4,2.1-5.3,4.2-8.7,6.4L440.8,101.7z M455.9,95.7
		c1.3,0.8,2.9,1.8,4.7,3.1c1.9,1.2,3.3,2.2,4.2,2.9l-2.5,3.5c-1-0.8-2.4-1.8-4.1-3c-1.8-1.2-3.3-2.2-4.6-3.1L455.9,95.7z"/>
	<path class="st0" d="M481,115.8c-1,0.3-2.8,0.8-5.3,1.6c-2.5,0.8-4.5,1.5-6,2l-1-4.7c0.8-0.2,2.2-0.6,4.3-1.3V102h-3.5v-4.6h3.5
		v-8.7h4.6v8.7h3v4.6h-3v10c1.1-0.3,2.1-0.6,3-0.9L481,115.8z M482.6,89.2h4.4v12.9c0,3.9-0.2,7-0.5,9.5c-0.3,2.5-0.8,4.7-1.6,6.6
		c-0.7,1.9-1.8,3.8-3.2,5.7l-4-2.9c1.5-2,2.6-3.8,3.2-5.2c0.7-1.5,1.1-3.2,1.3-5.1s0.3-4.7,0.3-8.5V89.2z M494.8,121.3h-4.4V90.9
		h4.4V121.3z M498.4,89.1h4.4v34.3h-4.4V89.1z"/>
	<path class="st0" d="M509.6,98.7c2.9,2.2,5.2,3.9,6.7,5.3l-2.9,3.7c-0.5-0.4-1-0.9-1.5-1.3c-0.5-0.4-1.3-1.1-2.4-2.1
		c-1.1-1-2-1.7-2.5-2.1L509.6,98.7z M507.4,122.7c0.5-1.3,1.3-3.6,2.4-6.9c1.1-3.3,1.8-5.5,2-6.5l4.4,1.3c-0.4,1.6-1.1,3.9-2.1,6.9
		c-1,3.1-1.7,5.3-2.2,6.6L507.4,122.7z M517.3,94.7l-2.7,3.6c-0.8-0.7-1.8-1.5-3-2.5c-1.2-1-2.3-1.9-3.3-2.7l2.8-3.4
		c1.4,1,3.5,2.7,6.1,4.9v-2.9h9.6l-1.1-2.5l5.1-0.9c0.2,0.5,0.7,1.6,1.5,3.4h9.7v4.1h-7.6v6.3h-4.1v-6.3h-2.3v6.3h-4.1v-6.3h-6.8
		V94.7z M523.9,98.4c-1.2,1.5-3.3,3.5-6.3,6l-2.5-3c2.4-1.9,4.4-3.7,5.9-5.6L523.9,98.4z M523.1,111.5l-0.1,2h17.7
		c-0.2,2.2-0.4,4.2-0.7,5.9c-0.3,1.6-0.8,2.8-1.5,3.5c-0.8,0.7-2,1.1-3.6,1.1c-1.9,0-4.1-0.1-6.6-0.3l-0.8-3.9
		c2.6,0.3,4.8,0.4,6.4,0.4c0.6,0,1.1-0.1,1.3-0.3c0.3-0.2,0.5-0.6,0.6-1.2c0.2-0.6,0.3-1.2,0.3-1.8h-18l0.9-8.8h15.8v-1.8h-14.9
		v-3.5h19.5v8.5H523.1z M537,96c1.2,0.8,2.9,2.2,5.3,4.1l1.2,1l-2.5,3.2c-0.8-0.8-2.6-2.3-5.1-4.5l-1.2-1L537,96z"/>
	<path class="st0" d="M578.2,124c-4.2-2-8.6-4-13.3-6c-1.6,1.4-3.7,2.6-6.3,3.5c-2.6,1-5.9,1.9-10,2.8l-1.6-4.5
		c4.2-0.8,7.5-1.6,9.9-2.5c2.4-0.9,4.2-1.9,5.4-3.2h-15.8v-4.3H558c-3-1.7-5.6-3.2-7.8-4.3l1.9-3.6c3.8,2,6.7,3.6,8.8,4.9l-1.9,3
		h5.4c0.3-1.4,0.5-3.3,0.6-5.6l0.2-6.7h4.7l-0.2,7.4c-0.1,1.9-0.2,3.5-0.5,4.9h11v4.3h-12.4c0,0-0.1,0.2-0.2,0.4l12.6,5.2L578.2,124
		z M551.6,96.1v4.1h-4.5v-8.3h14l-0.5-1.1l-0.8-1.9l5.4-0.9c0.3,0.6,0.6,1.5,1.1,2.8l0.4,1.2h12.9v8.4h-4.6v-4.2H551.6z
		 M561.8,104.9c-0.9-0.6-2.2-1.4-3.9-2.3s-3.2-1.7-4.5-2.4l2-3.6c4.1,2.2,6.9,3.7,8.4,4.6L561.8,104.9z"/>
	<path class="st0" d="M592.4,114.6c-0.4,0-1.7,0.3-4,0.8c-2.3,0.5-3.7,0.8-4.2,0.9l-0.3-4.2c0.6-0.1,1.8-0.3,3.8-0.6
		c2-0.4,3.5-0.6,4.5-0.8L592.4,114.6z M595.6,104.5h2c0,1.8,0,4-0.2,6.7c-0.1,2.7-0.3,5.1-0.5,7.2c-0.2,1.4-0.4,2.4-0.8,3.1
		c-0.4,0.7-0.9,1.1-1.7,1.4c-0.8,0.3-1.9,0.4-3.5,0.4c-1,0-2-0.1-3.2-0.2l-0.8-3.8c1.3,0.2,2.5,0.3,3.6,0.3c0.7,0,1.2-0.1,1.5-0.2
		c0.3-0.1,0.6-0.4,0.7-0.7c0.2-0.3,0.3-0.8,0.4-1.5c0.1-1,0.2-2.3,0.3-4c0.1-1.7,0.2-3.2,0.2-4.7h-8.4l0.9-13.3h3.9l-0.6,9.4h2.2
		l0.8-10.7h-7.6v-4.1h11.8L595.6,104.5z M596,100.3c2.4-1.7,4.4-3.5,6.1-5.5c1.6-2,3-4.1,4.2-6.5h3.4c1.1,2.5,2.6,4.8,4.4,6.8
		c1.8,2.1,3.8,3.9,6.1,5.5l-2.3,4c-1-0.8-1.9-1.5-2.8-2.3v2h-14.1v-2c-1,0.9-1.7,1.5-2.2,1.9L596,100.3z M617.7,106.8
		c-1.4,4.7-2.7,8.6-3.7,11.6h4.8v4.4H598v-4.4h12c1.2-3.4,2.5-7.6,3.8-12.7L617.7,106.8z M602.2,106c1.4,4.6,2.4,8,2.9,10.1
		l-3.8,1.2c-0.4-1.8-1.2-4.8-2.4-8.9l-0.3-1.2L602.2,106z M603.1,100.2h9.7c-2-2.1-3.7-4.3-4.8-6.6C606.6,95.9,605,98.1,603.1,100.2
		 M607.4,116c-0.3-1.3-0.7-2.9-1.2-4.7c-0.5-1.9-0.9-3.4-1.4-4.7l3.6-1.1c0.4,1.4,0.9,3,1.4,4.8c0.5,1.8,0.9,3.4,1.1,4.6L607.4,116z
		"/>
	<path class="st0" d="M642.2,119h14.5v4h-33.8v-4h14.6v-2.8h-11.2v-3.9h11.2v-2.7c-1.7,0.1-4.1,0.2-7.3,0.4l-3.8,0.3l-0.8-3.6
		c0.9-0.3,1.7-0.6,2.3-1c1.3-0.8,2.7-1.9,4.4-3.4h-5.8v-3.6h26.5v3.6h-4.9c2.3,2.1,4.4,4.1,6.3,6l-3.1,3c-0.4-0.4-1.2-1.2-2.3-2.4
		c-3,0.2-5.3,0.3-6.8,0.4v3h11v3.9h-11V119z M628,95.6v2.3h-4.6v-6.3h14.1c-0.4-1-0.8-1.8-1.2-2.6l5.4-1.2c0.5,1.1,1,2.4,1.5,3.8h13
		v6.3h-4.6v-2.3H628z M638.7,102.3c-2,1.9-3.7,3.3-5.1,4.2l12-0.8l-2.1-1.9l1.6-1.5H638.7z"/>
	<path class="st0" d="M447.5,26.8c-0.9,1.2-2,2-3.4,2.6c-1.4,0.5-2.9,0.8-4.5,0.8c-2.3,0-4.4-0.5-6.3-1.6c-1.9-1.1-3.1-2.6-3.7-4.6
		l4-2.3c0.5,1.3,1.4,2.3,2.4,3c1.1,0.7,2.3,1.1,3.8,1.1c1.2,0,2.1-0.2,2.8-0.7s1-1.2,1-2.1c0-0.7-0.2-1.3-0.7-1.8
		c-0.5-0.5-1.1-0.9-1.8-1.1c-0.7-0.3-1.7-0.6-2.9-1c-1.6-0.5-2.9-1-4-1.4c-1-0.5-1.9-1.2-2.6-2.1c-0.7-0.9-1.1-2.2-1.1-3.7
		c0-1.6,0.4-3,1.3-4.1c0.9-1.1,2-2,3.4-2.5c1.4-0.6,2.9-0.8,4.5-0.8c2.2,0,4.1,0.5,5.7,1.5c1.6,1,2.6,2.4,3.1,4.1l-4,2.3
		c-0.4-1.1-1-1.9-1.8-2.5c-0.8-0.6-1.9-0.9-3.1-0.9c-1.1,0-2,0.3-2.7,0.8c-0.7,0.5-1,1.2-1,2c0,0.6,0.2,1.2,0.7,1.6
		c0.4,0.4,1,0.8,1.7,1c0.7,0.3,1.6,0.6,2.7,0.9c1.6,0.5,3,1,4.1,1.5c1.1,0.5,2,1.2,2.8,2.2c0.8,1,1.1,2.2,1.1,3.8
		C448.8,24.2,448.4,25.6,447.5,26.8"/>
	<path class="st0" d="M466.6,13.4c1.2,1.3,1.7,3.2,1.7,5.6v10.6h-4.8v-9.1c0-3.2-1.1-4.9-3.2-4.9c-1.1,0-2.1,0.4-2.8,1.3
		c-0.7,0.9-1,2.1-1,3.7v8.9h-4.8V3.6h4.8v10.7c1.1-1.9,3-2.8,5.4-2.8C463.9,11.5,465.4,12.2,466.6,13.4"/>
	<path class="st0" d="M484.6,12.6c1.2,0.7,2.2,1.7,2.8,3c0.7,1.3,1,2.7,1,4.4c0,0.7-0.1,1.5-0.2,2.2h-11.8c0.2,1.3,0.7,2.3,1.4,3
		c0.8,0.7,1.7,1,2.8,1c0.8,0,1.5-0.2,2.1-0.5c0.6-0.4,1.1-0.9,1.5-1.6l3.5,2.1c-0.5,1.3-1.4,2.3-2.8,3c-1.4,0.7-2.9,1.1-4.5,1.1
		c-1.6,0-3.1-0.4-4.5-1.1c-1.4-0.7-2.5-1.8-3.3-3.2c-0.8-1.4-1.3-3.1-1.3-5.1c0-2,0.4-3.6,1.3-5c0.8-1.4,1.9-2.4,3.3-3.2
		c1.3-0.7,2.8-1.1,4.4-1.1C481.9,11.5,483.3,11.9,484.6,12.6 M477.8,16.3c-0.7,0.6-1.1,1.4-1.3,2.5h7.1c-0.1-1.1-0.4-1.9-1-2.5
		c-0.6-0.6-1.4-0.9-2.3-0.9C479.3,15.4,478.5,15.7,477.8,16.3"/>
	<path class="st0" d="M506.4,13.4c1.1,1.3,1.7,3.2,1.7,5.6v10.6h-4.8v-9.1c0-3.2-1.1-4.9-3.2-4.9c-1.1,0-2.1,0.4-2.8,1.3
		c-0.7,0.9-1,2.1-1,3.7v8.9h-4.8V12h4.2c0.1,1.4,0.2,2.3,0.3,2.8c1.1-2.2,3-3.3,5.7-3.3C503.7,11.5,505.3,12.2,506.4,13.4"/>
	<polygon class="st0" points="525.3,12 525.3,14.7 517.2,25.9 525.8,25.9 525.8,29.7 511,29.7 511,26.9 519.1,15.8 511.6,15.8 
		511.6,12 	"/>
	<path class="st0" d="M543.7,13.4c1.2,1.3,1.7,3.2,1.7,5.6v10.6h-4.8v-9.1c0-3.2-1.1-4.9-3.2-4.9c-1.1,0-2.1,0.4-2.8,1.3
		c-0.7,0.9-1,2.1-1,3.7v8.9h-4.8V3.6h4.8v10.7c1.1-1.9,3-2.8,5.4-2.8C541,11.5,542.5,12.2,543.7,13.4"/>
	<path class="st0" d="M561.7,12.6c1.2,0.7,2.2,1.7,2.8,3c0.7,1.3,1,2.7,1,4.4c0,0.7-0.1,1.5-0.2,2.2h-11.8c0.2,1.3,0.7,2.3,1.4,3
		c0.8,0.7,1.7,1,2.8,1c0.8,0,1.5-0.2,2.1-0.5c0.6-0.4,1.1-0.9,1.5-1.6l3.5,2.1c-0.5,1.3-1.4,2.3-2.8,3c-1.4,0.7-2.9,1.1-4.5,1.1
		c-1.6,0-3.1-0.4-4.5-1.1c-1.4-0.7-2.5-1.8-3.3-3.2c-0.8-1.4-1.3-3.1-1.3-5.1c0-2,0.4-3.6,1.3-5c0.8-1.4,1.9-2.4,3.3-3.2
		c1.3-0.7,2.8-1.1,4.4-1.1C559,11.5,560.4,11.9,561.7,12.6 M554.9,16.3c-0.7,0.6-1.1,1.4-1.3,2.5h7.1c-0.1-1.1-0.4-1.9-1-2.5
		c-0.6-0.6-1.4-0.9-2.3-0.9C556.4,15.4,555.6,15.7,554.9,16.3"/>
	<path class="st0" d="M583.5,13.4c1.1,1.3,1.7,3.2,1.7,5.6v10.6h-4.8v-9.1c0-3.2-1.1-4.9-3.2-4.9c-1.1,0-2.1,0.4-2.8,1.3
		c-0.7,0.9-1,2.1-1,3.7v8.9h-4.8V12h4.2c0.1,1.4,0.2,2.3,0.3,2.8c1.1-2.2,3-3.3,5.7-3.3C580.8,11.5,582.4,12.2,583.5,13.4"/>
	<path class="st0" d="M618.5,22.5c0,2.3-0.8,4-2.5,5.3c-1.7,1.3-4,1.9-7,1.9h-10V4.6h9.1c2.7,0,4.9,0.6,6.5,1.8
		c1.7,1.2,2.5,2.9,2.5,5.2c0,2.3-0.9,4-2.8,5.1C617.2,17.7,618.5,19.6,618.5,22.5 M603.9,8.9v5.9h3.7c1.3,0,2.4-0.3,3.2-0.8
		c0.8-0.6,1.2-1.3,1.2-2.2c0-0.9-0.4-1.6-1.2-2.1c-0.8-0.5-1.8-0.7-3.2-0.7H603.9z M608.7,25.4c1.5,0,2.7-0.3,3.5-0.8
		c0.8-0.5,1.2-1.3,1.2-2.3c0-1-0.4-1.8-1.2-2.4c-0.8-0.6-2-0.9-3.5-0.9h-4.7v6.4H608.7z"/>
	<path class="st0" d="M635.1,13.6c1.3,1.4,2,3.3,2,5.8v10.4h-4c0-0.2,0-0.5-0.1-0.9c0-0.4-0.1-0.8-0.2-1.1c-0.5,0.8-1.2,1.4-2,1.8
		s-1.8,0.6-3,0.6c-1.2,0-2.4-0.2-3.4-0.7c-1-0.4-1.8-1.1-2.4-1.9c-0.6-0.8-0.9-1.8-0.9-3c0-1.2,0.3-2.2,1-3.1c0.7-0.9,1.6-1.6,2.7-2
		s2.4-0.7,3.8-0.7c1.2,0,2.5,0.2,3.8,0.6c-0.1-2.6-1.2-3.9-3.4-3.9c-1.7,0-3,0.8-3.8,2.3l-3.4-2c0.6-1.3,1.6-2.4,2.9-3.1
		c1.3-0.8,2.9-1.1,4.7-1.1C631.9,11.5,633.8,12.2,635.1,13.6 M632.4,22.5c-1.1-0.3-2.1-0.4-3-0.4c-1.1,0-2,0.2-2.6,0.6
		c-0.6,0.4-0.9,1-0.9,1.7c0,0.7,0.2,1.2,0.7,1.5c0.5,0.4,1.1,0.5,1.9,0.5c1,0,1.9-0.3,2.7-0.9c0.8-0.6,1.2-1.4,1.2-2.4V22.5z"/>
	<path class="st0" d="M652.7,12h5l-8,20.1c-0.8,2.1-1.8,3.7-3,4.6c-1.1,0.9-2.5,1.4-4.2,1.4c-0.8,0-1.6-0.1-2.3-0.4
		c-0.7-0.2-1.3-0.6-1.9-1l1.9-3.6c0.7,0.5,1.4,0.8,2.3,0.8c0.5,0,1-0.1,1.4-0.3c0.4-0.2,0.7-0.6,1.1-1.1c0.3-0.5,0.7-1.3,1.2-2.4
		L638.4,12h5.4l4.7,12.2L652.7,12z"/>
	<polygon class="st0" points="431.9,44.5 436.8,44.5 436.8,65.1 448.3,65.1 448.3,69.6 431.9,69.6 	"/>
	<path class="st0" d="M464.2,53.4c1.4,1.4,2,3.3,2,5.8v10.4h-4c0-0.2,0-0.5-0.1-0.9c0-0.4-0.1-0.8-0.2-1.1c-0.5,0.8-1.2,1.4-2,1.8
		c-0.8,0.4-1.8,0.6-3,0.6c-1.2,0-2.4-0.2-3.4-0.7c-1-0.4-1.8-1.1-2.4-1.9c-0.6-0.8-0.9-1.8-0.9-3c0-1.2,0.3-2.2,1-3.1
		c0.7-0.9,1.6-1.6,2.7-2c1.1-0.5,2.4-0.7,3.8-0.7c1.2,0,2.5,0.2,3.8,0.6c-0.1-2.6-1.2-3.9-3.4-3.9c-1.7,0-3,0.8-3.8,2.3l-3.4-2
		c0.6-1.3,1.6-2.4,2.9-3.1c1.3-0.8,2.9-1.2,4.7-1.2C461,51.4,462.9,52.1,464.2,53.4 M461.5,62.4c-1.1-0.3-2.1-0.4-3-0.4
		c-1.1,0-2,0.2-2.6,0.6c-0.6,0.4-0.9,1-0.9,1.7c0,0.7,0.2,1.2,0.7,1.5c0.5,0.4,1.1,0.5,1.9,0.5c1,0,1.9-0.3,2.7-0.9
		c0.8-0.6,1.2-1.4,1.2-2.4V62.4z"/>
	<path class="st0" d="M484.6,52.5c1.2,0.7,2.2,1.8,2.9,3.2c0.7,1.4,1.1,3.1,1.1,5c0,1.9-0.4,3.6-1.1,5c-0.7,1.4-1.7,2.5-2.9,3.2
		c-1.2,0.7-2.6,1.1-4,1.1c-1.2,0-2.3-0.3-3.3-0.8c-1-0.5-1.8-1.3-2.4-2.3c-0.2,1.3-0.3,2.2-0.3,2.7h-4.2V43.5h4.8v10.6
		c0.6-0.9,1.4-1.6,2.3-2c0.9-0.4,1.9-0.7,3-0.7C482,51.4,483.3,51.8,484.6,52.5 M482.5,64.5c0.8-0.9,1.1-2.2,1.1-3.8
		c0-1.6-0.4-2.8-1.1-3.7c-0.8-0.9-1.8-1.3-3-1.3c-1.2,0-2.2,0.4-3.1,1.3c-0.8,0.8-1.2,2.1-1.2,3.8s0.4,3,1.3,3.9
		c0.8,0.9,1.8,1.3,3,1.3C480.7,65.9,481.7,65.5,482.5,64.5"/>
	<path class="st0" d="M492.2,55.8c0.8-1.4,1.9-2.5,3.3-3.3c1.4-0.8,2.9-1.1,4.5-1.1c1.6,0,3.1,0.4,4.5,1.1c1.4,0.8,2.5,1.9,3.3,3.3
		c0.8,1.4,1.3,3.1,1.3,4.9c0,1.8-0.4,3.5-1.3,4.9c-0.8,1.4-1.9,2.5-3.3,3.3c-1.4,0.8-2.9,1.1-4.5,1.1c-1.6,0-3.1-0.4-4.5-1.1
		c-1.4-0.8-2.5-1.8-3.3-3.3c-0.8-1.4-1.3-3.1-1.3-4.9C491,58.9,491.4,57.2,492.2,55.8 M497.1,64.5c0.8,0.9,1.8,1.4,3,1.4
		c1.2,0,2.2-0.5,2.9-1.4c0.8-0.9,1.2-2.2,1.2-3.8c0-1.6-0.4-2.8-1.2-3.8c-0.8-0.9-1.8-1.4-2.9-1.4c-1.2,0-2.2,0.5-3,1.4
		c-0.8,0.9-1.2,2.2-1.2,3.8C495.9,62.3,496.3,63.6,497.1,64.5"/>
	<path class="st0" d="M524,51.7c0.6,0.2,1.1,0.5,1.4,0.8l-1.9,3.7c-0.6-0.4-1.3-0.6-2-0.6c-1.2,0-2.2,0.5-3,1.5
		c-0.7,1-1.1,2.4-1.1,4.3v8.3h-4.8V51.8h4.2c0.1,1.4,0.2,2.3,0.3,2.8c0.5-1.1,1.2-1.9,2.1-2.4c0.8-0.5,1.8-0.8,2.9-0.8
		C522.7,51.4,523.4,51.5,524,51.7"/>
	<path class="st0" d="M539.1,53.4c1.3,1.4,2,3.3,2,5.8v10.4h-4c0-0.2-0.1-0.5-0.1-0.9c0-0.4-0.1-0.8-0.2-1.1c-0.5,0.8-1.2,1.4-2,1.8
		c-0.8,0.4-1.8,0.6-3,0.6c-1.2,0-2.4-0.2-3.4-0.7c-1-0.4-1.8-1.1-2.4-1.9c-0.6-0.8-0.9-1.8-0.9-3c0-1.2,0.3-2.2,1-3.1
		c0.7-0.9,1.6-1.6,2.7-2s2.4-0.7,3.8-0.7c1.2,0,2.5,0.2,3.8,0.6c-0.1-2.6-1.2-3.9-3.4-3.9c-1.7,0-3,0.8-3.8,2.3l-3.4-2
		c0.6-1.3,1.6-2.4,3-3.1c1.3-0.8,2.9-1.2,4.7-1.2C535.9,51.4,537.8,52.1,539.1,53.4 M536.4,62.4c-1.1-0.3-2.1-0.4-3-0.4
		c-1.1,0-2,0.2-2.6,0.6c-0.6,0.4-0.9,1-0.9,1.7c0,0.7,0.2,1.2,0.7,1.5c0.5,0.4,1.1,0.5,1.9,0.5c1,0,1.9-0.3,2.7-0.9
		c0.8-0.6,1.2-1.4,1.2-2.4V62.4z"/>
	<path class="st0" d="M557.6,68.6c-1.2,1-2.8,1.4-4.9,1.4c-1.9,0-3.5-0.5-4.6-1.5c-1.2-1-1.8-2.8-1.8-5.5v-7.2h-3.2v-4h3.2v-5.5h4.8
		v5.5h5.4v4H551v6.4c0,1.2,0.2,2.1,0.6,2.7c0.4,0.6,1.1,0.9,2,0.9c0.8,0,1.6-0.2,2.3-0.7L557.6,68.6z"/>
	<path class="st0" d="M559.6,55.8c0.8-1.4,1.9-2.5,3.3-3.3c1.4-0.8,2.9-1.1,4.5-1.1c1.6,0,3.1,0.4,4.5,1.1c1.4,0.8,2.5,1.9,3.3,3.3
		c0.8,1.4,1.3,3.1,1.3,4.9c0,1.8-0.4,3.5-1.3,4.9c-0.8,1.4-1.9,2.5-3.3,3.3c-1.4,0.8-2.9,1.1-4.5,1.1c-1.6,0-3.1-0.4-4.5-1.1
		c-1.4-0.8-2.5-1.8-3.3-3.3c-0.8-1.4-1.3-3.1-1.3-4.9C558.4,58.9,558.8,57.2,559.6,55.8 M564.5,64.5c0.8,0.9,1.8,1.4,3,1.4
		c1.2,0,2.2-0.5,2.9-1.4c0.8-0.9,1.2-2.2,1.2-3.8c0-1.6-0.4-2.8-1.2-3.8c-0.8-0.9-1.8-1.4-2.9-1.4c-1.2,0-2.2,0.5-3,1.4
		c-0.8,0.9-1.2,2.2-1.2,3.8C563.3,62.3,563.7,63.6,564.5,64.5"/>
	<path class="st0" d="M586.5,52.2c0.8-0.5,1.8-0.8,2.9-0.8c0.7,0,1.3,0.1,1.8,0.4v4.4c-0.6-0.4-1.2-0.6-2-0.6
		c-1.4,0-2.6,0.5-3.3,1.5c-0.8,1-1.2,2.4-1.2,4.3v8.3H580V51.8h4.2c0.1,1.4,0.2,2.3,0.3,2.8C585,53.6,585.7,52.8,586.5,52.2
		 M606.4,51.8h5l-8,20.1c-0.8,2.1-1.8,3.7-2.9,4.6c-1.1,0.9-2.5,1.4-4.2,1.4c-0.8,0-1.6-0.1-2.4-0.4c-0.7-0.2-1.3-0.6-1.8-1l1.9-3.6
		c0.7,0.5,1.5,0.8,2.3,0.8c0.5,0,1-0.1,1.3-0.3c0.4-0.2,0.7-0.6,1.1-1.1c0.4-0.5,0.7-1.3,1.2-2.4l-7.7-18.1h5.3l4.7,12.2L606.4,51.8
		z"/>
	<path class="st1" d="M44.3,127.2c-12.7,0-29.7-2.8-40.1-8V90.1C17.7,99,33.9,102,46.4,101.2c10.1-0.6,15.5-3.9,16.8-8.4
		c1.2-4.3-0.3-8.4-5.7-11.2c-5-2.6-11.6-4.4-19.7-7.3c-7.3-2.6-19.4-6.1-27.8-13.7c-8.8-8-10.2-17.4-10-24.1C0.2,30.3,2,24,5.1,19.3
		c3.3-5,7.8-9.1,13.9-12.4c6.4-3.4,15.7-5.9,28-6.1C64.3,0.6,78,4.7,82,6.1v28.3c-3.7-2.2-10.8-5.2-18.4-6.9c-8.5-2-17.8-2.6-24-1.2
		c-7.2,1.7-9.8,5-10.3,8.7c-0.5,3.3,0.5,6.6,4.5,9.3c3.7,2.5,10.4,4.9,18,7.4c8.8,2.9,15.7,5.5,21.4,8.5c5.9,3,10.4,6.8,13.8,12
		c3.3,5.1,5.2,11,5.1,18.3c-0.2,13.9-6.9,22.5-13.8,27.7C68.4,125.7,54.1,127.2,44.3,127.2"/>
	<path class="st1" d="M286.6,63.4c9.9-5.4,16.5-15.9,16.5-27.9c0-17.6-14.3-31.9-31.9-31.9h-60.7v120.8h63
		c17.6,0,31.9-14.3,31.9-31.9C305.5,79.6,297.7,68.4,286.6,63.4 M264.6,103.3c-3.9,3.2-9,4.4-14.1,3.3c-6.6-1.4-11.7-6.8-12.8-13.5
		c-1-6.1,1.5-12.2,6.4-15.9c4.3-3.3,6.8-8.1,6.8-13.2l0,0c0-5-2.5-9.9-7-13.3c-4.1-3.2-6.4-7.9-6.4-13.1c0-5,2.2-9.7,6.2-12.9
		c3.9-3.2,9-4.4,14.1-3.3c6.6,1.4,11.7,6.8,12.8,13.5c1,6.1-1.5,12.2-6.4,15.9c-4.3,3.3-6.8,8.1-6.8,13.2l0,0c0,5,2.5,9.9,7,13.3
		c4.1,3.2,6.4,7.9,6.4,13.1C270.8,95.4,268.5,100.1,264.6,103.3"/>
	<polygon class="st1" points="349.9,97 349.9,3.6 321.4,3.6 321.4,124.4 321.5,124.4 405.4,124.4 405.4,97 	"/>
	<polygon class="st1" points="100.3,3.6 100.3,31 154.4,31 104.5,98.2 100.3,103.9 100.3,110.6 100.3,124.4 192.3,124.4 192.3,97 
		138.3,97 188.1,29.8 192.3,24.1 192.3,17.4 192.3,3.6 	"/>
</g>
</svg>
